HIERARCHY
ROOT Hips
{
	OFFSET 0.000000 0.000000 0.000000
	CHANNELS 6 Xposition Yposition Zposition Xrotation Yrotation Zrotation
	JOINT LeftUpLeg_virtual
	{
		OFFSET 0.000000 0.000000 0.000000
		CHANNELS 3 Xrotation Yrotation Zrotation
		JOINT LeftUpLeg
		{
			OFFSET 13.026900 -6.336304 -1.092800
			CHANNELS 3 Xrotation Yrotation Zrotation
			JOINT LeftLeg
			{
				OFFSET 0.524474 -46.096886 9.782700
				CHANNELS 3 Xrotation Yrotation Zrotation
				JOINT LeftFoot
				{
					OFFSET -0.524474 -53.427422 -12.948200
					CHANNELS 3 Xrotation Yrotation Zrotation
					JOINT LeftToeBase
					{
						OFFSET 0.192200 -14.009700 16.364100
						CHANNELS 3 Xrotation Yrotation Zrotation
						JOINT LeftToe_End
						{
							OFFSET -1.784700 -0.561700 9.474800
							CHANNELS 3 Xrotation Yrotation Zrotation
							End Site
							{
								OFFSET 0 0 0
							}
						}
					}
				}
			}
		}
	}
	JOINT RightUpLeg_virtual
	{
		OFFSET 0.000000 0.000000 0.000000
		CHANNELS 3 Xrotation Yrotation Zrotation
		JOINT RightUpLeg
		{
			OFFSET -12.883000 -6.336304 -1.092800
			CHANNELS 3 Xrotation Yrotation Zrotation
			JOINT RightLeg
			{
				OFFSET -0.524587 -46.096825 9.782800
				CHANNELS 3 Xrotation Yrotation Zrotation
				JOINT RightFoot
				{
					OFFSET 0.524587 -53.427383 -12.948300
					CHANNELS 3 Xrotation Yrotation Zrotation
					JOINT RightToeBase
					{
						OFFSET -0.192200 -14.009700 16.364100
						CHANNELS 3 Xrotation Yrotation Zrotation
						JOINT RightToe_End
						{
							OFFSET 1.784700 -0.561700 9.474800
							CHANNELS 3 Xrotation Yrotation Zrotation
							End Site
							{
								OFFSET 0 0 0
							}
						}
					}
				}
			}
		}
	}
	JOINT Spine_virtual
	{
		OFFSET 0.000000 0.000000 0.000000
		CHANNELS 3 Xrotation Yrotation Zrotation
		JOINT Spine
		{
			OFFSET 0.072000 7.257294 -0.789700
			CHANNELS 3 Xrotation Yrotation Zrotation
			JOINT Spine1
			{
				OFFSET 0.000000 12.508769 -0.658067
				CHANNELS 3 Xrotation Yrotation Zrotation
				JOINT Spine1_split
				{
					OFFSET 0.000000 12.508769 -0.658067
					CHANNELS 3 Xrotation Yrotation Zrotation
					JOINT Spine2
					{
						OFFSET 0.000000 12.508769 -0.658067
						CHANNELS 3 Xrotation Yrotation Zrotation
						JOINT Neck_virtual
						{
							OFFSET 0.000000 0.000000 0.000000
							CHANNELS 3 Xrotation Yrotation Zrotation
							JOINT Neck
							{
								OFFSET 0.000000 14.033295 7.520400
								CHANNELS 3 Xrotation Yrotation Zrotation
								JOINT Head
								{
									OFFSET 0.000000 8.198502 5.703100
									CHANNELS 3 Xrotation Yrotation Zrotation
									JOINT HeadTop_End
									{
										OFFSET 0.000000 17.760803 13.332701
										CHANNELS 3 Xrotation Yrotation Zrotation
										End Site
										{
											OFFSET 0 0 0
										}
									}
								}
							}
						}
						JOINT LeftShoulder_virtual
						{
							OFFSET 0.000000 0.000000 0.000000
							CHANNELS 3 Xrotation Yrotation Zrotation
							JOINT LeftShoulder
							{
								OFFSET 6.292450 5.785301 -0.669000
								CHANNELS 3 Xrotation Yrotation Zrotation
								JOINT LeftShoulder_split
								{
									OFFSET 6.292450 5.785301 -0.669000
									CHANNELS 3 Xrotation Yrotation Zrotation
									JOINT LeftArm
									{
										OFFSET 13.907140 -6.093903 1.965100
										CHANNELS 3 Xrotation Yrotation Zrotation
										JOINT LeftForeArm
										{
											OFFSET 34.140198 0.000000 0.000000
											CHANNELS 3 Xrotation Yrotation Zrotation
											JOINT LeftHand
											{
												OFFSET 40.960209 0.000000 0.000000
												CHANNELS 3 Xrotation Yrotation Zrotation
												End Site
												{
													OFFSET 0 0 0
												}
											}
										}
									}
								}
							}
						}
						JOINT RightShoulder_virtual
						{
							OFFSET 0.000000 0.000000 0.000000
							CHANNELS 3 Xrotation Yrotation Zrotation
							JOINT RightShoulder
							{
								OFFSET -6.292450 5.785301 -0.669000
								CHANNELS 3 Xrotation Yrotation Zrotation
								JOINT RightShoulder_split
								{
									OFFSET -6.292450 5.785301 -0.669000
									CHANNELS 3 Xrotation Yrotation Zrotation
									JOINT RightArm
									{
										OFFSET -13.907140 -6.093903 1.965100
										CHANNELS 3 Xrotation Yrotation Zrotation
										JOINT RightForeArm
										{
											OFFSET -34.140198 0.000000 0.000000
											CHANNELS 3 Xrotation Yrotation Zrotation
											JOINT RightHand
											{
												OFFSET -40.960209 0.000000 0.000000
												CHANNELS 3 Xrotation Yrotation Zrotation
												End Site
												{
													OFFSET 0 0 0
												}
											}
										}
									}
								}
							}
						}
					}
				}
			}
		}
	}
}
MOTION
Frames: 10
Frame Time: 0.03333333
4.362398 58.747757 -21.298222 0.000000 0.000000 0.000000 30.133818 -3.928658 4.177009 -101.415304 -9.492666 23.374487 108.044495 2.877080 -3.917745 -2.812140 -16.514591 -6.369688 -34.475312 -1.016897 -1.688430 0.000000 0.000000 0.000000 32.966287 -2.573388 3.671199 -99.156199 -8.972119 -10.718781 115.925604 14.861161 -4.702851 -22.460179 5.265136 -21.467524 -37.985793 0.438249 -1.451702 0.000000 0.000000 0.000000 31.765912 -7.902397 3.999379 8.130371 1.778793 -3.420124 24.072978 1.829047 -4.754785 1.562032 -0.107482 0.789458 0.000000 0.000000 0.000000 23.529829 1.887403 -4.781667 -25.999159 -4.718658 0.905608 -28.308880 -7.371426 3.216846 0.000000 0.000000 0.000000 22.661847 2.130292 -5.267102 1.685366 -2.165854 1.159853 0.860307 -5.825675 0.709192 -22.330158 -27.817248 -23.056501 -146.889024 -82.624156 -147.125553 0.000000 0.000000 0.000000 23.311016 2.254177 -5.148498 7.346138 28.343135 7.022709 0.562519 2.717701 -1.251922 -34.175603 7.528797 27.672436 10.131209 72.605847 -20.821739 0.000000 0.000000 0.000000 
5.055332 54.281986 -22.321301 0.000000 0.000000 0.000000 32.488290 -1.129745 4.516131 -99.519838 -13.105663 24.591411 113.340794 2.102949 -2.671732 -10.000954 -15.860720 -13.540787 -35.377856 -0.580844 -2.447545 0.000000 0.000000 0.000000 35.314366 -0.760575 4.285741 -107.707480 -2.496545 -10.033152 120.719004 13.005789 -5.143648 -18.851052 1.651692 -17.376375 -41.415327 0.631677 -1.369345 0.000000 0.000000 0.000000 35.142020 -5.615908 4.459083 6.983218 1.298078 -3.655171 22.241582 1.605802 -3.946478 1.640758 -0.011273 1.122511 0.000000 0.000000 0.000000 21.573038 1.572136 -4.096223 -21.607459 -4.369853 0.262032 -29.808933 -8.653939 2.749070 0.000000 0.000000 0.000000 20.758436 1.818663 -4.357058 1.218525 -2.095695 -0.455556 0.705791 -5.259588 0.539479 -20.870954 -32.380018 -22.308933 -154.163708 -82.528247 -155.636857 0.000000 0.000000 0.000000 21.221978 1.779589 -4.423263 7.332871 30.362458 9.574043 0.596816 2.698785 -1.298491 -36.381358 13.051261 25.158298 6.476030 66.727677 -15.498997 0.000000 0.000000 0.000000 
5.630225 51.216595 -23.503857 0.000000 0.000000 0.000000 34.385495 1.478256 4.656297 -97.448064 -16.886021 25.410384 115.412753 0.605491 -1.029422 -14.650949 -15.567994 -21.670291 -34.627218 -0.410746 -2.688800 0.000000 0.000000 0.000000 37.061245 0.418231 4.909899 -114.314328 2.905779 -8.981787 123.404866 11.739416 -5.524532 -13.625722 -0.892096 -11.206898 -43.821186 0.911610 -1.411500 0.000000 0.000000 0.000000 37.887705 -3.639745 4.882941 6.077790 0.563910 -3.800479 20.188004 1.385725 -2.986551 1.370652 0.004780 1.442627 0.000000 0.000000 0.000000 19.446901 1.239363 -3.271863 -17.519314 -4.000614 -0.369618 -31.109978 -9.428795 2.417645 0.000000 0.000000 0.000000 18.784562 1.442720 -3.364721 0.723055 -1.788793 -2.465312 0.213461 -4.276007 -0.057958 -18.859421 -36.924918 -23.483367 -154.143723 -84.768494 -156.625650 0.000000 0.000000 0.000000 19.005193 1.317686 -3.515844 7.191576 31.403010 12.194978 0.298183 2.593650 -1.098608 -38.187263 16.758993 23.921416 4.371647 61.852499 -11.566155 0.000000 0.000000 0.000000 
6.010655 49.280022 -24.340923 0.000000 0.000000 0.000000 35.804753 3.575640 4.557600 -95.744629 -20.136374 26.391023 115.531817 -0.767029 0.015895 -16.654964 -15.907193 -28.029428 -35.000871 -0.635065 -2.209958 0.000000 0.000000 0.000000 38.251918 1.100931 5.325406 -118.632354 6.607619 -7.985507 124.619055 10.709133 -5.522333 -9.389120 -2.129081 -5.122106 -43.970565 1.238117 -1.542642 0.000000 0.000000 0.000000 39.692985 -1.991164 5.171691 5.597891 -0.314907 -3.825045 18.249811 1.149334 -2.065074 1.112217 -0.358513 1.559661 0.000000 0.000000 0.000000 17.483840 0.907299 -2.456679 -14.299468 -3.647939 -0.915419 -32.227124 -9.763509 2.317714 0.000000 0.000000 0.000000 17.070465 0.991613 -2.491568 0.235496 -1.372010 -4.532515 -0.615028 -2.857599 -0.857245 -16.825546 -40.555044 -25.826204 -132.170649 -88.389294 -135.344911 0.000000 0.000000 0.000000 17.033455 0.885921 -2.600472 7.039902 31.558090 14.448536 -0.084574 2.228608 -0.577287 -39.767988 18.626769 23.616419 3.050031 58.635159 -8.434236 0.000000 0.000000 0.000000 
6.069713 48.010330 -24.863094 0.000000 0.000000 0.000000 36.648299 4.808994 4.361586 -94.735352 -22.296789 27.683710 115.486218 -1.164981 -0.290761 -16.901634 -16.433037 -30.783751 -36.020642 -0.892598 -2.045777 0.000000 0.000000 0.000000 39.055428 1.556547 5.406878 -120.744385 8.387368 -7.490851 125.252733 9.539095 -4.705573 -7.551239 -2.806835 -1.170749 -42.440132 1.560519 -1.714247 0.000000 0.000000 0.000000 40.513438 -0.494922 5.199786 5.593863 -1.207249 -3.714655 16.718637 0.870891 -1.337442 0.911848 -1.057907 1.469501 0.000000 0.000000 0.000000 15.986766 0.604540 -1.798718 -12.178179 -3.414364 -1.287329 -33.208100 -9.657502 2.469205 0.000000 0.000000 0.000000 15.826865 0.541681 -1.850684 -0.199619 -0.932431 -6.376790 -1.630737 -1.347429 -1.712612 -15.292090 -42.942164 -28.550843 -2.781015 -87.275809 -6.296406 0.000000 0.000000 0.000000 15.543065 0.517741 -1.836819 7.008860 30.926417 15.944419 -0.122082 1.988401 0.138394 -41.176448 19.259875 23.650889 2.085355 56.967719 -5.846202 0.000000 0.000000 0.000000 
5.929852 47.108128 -25.218235 0.000000 0.000000 0.000000 36.992988 5.134021 4.110058 -94.724916 -23.095950 29.210967 116.027456 -0.567440 -1.622383 -16.730004 -16.615897 -30.633368 -37.316452 -0.903753 -2.500182 0.000000 0.000000 0.000000 39.359266 1.749714 5.201228 -121.181353 8.504104 -7.740834 126.018056 8.214046 -3.174613 -7.515821 -3.437252 0.500535 -40.466142 1.872015 -1.959369 0.000000 0.000000 0.000000 40.430577 0.799466 4.975818 6.018270 -2.015532 -3.509448 15.745734 0.586445 -0.900998 0.843076 -2.054915 1.392264 0.000000 0.000000 0.000000 15.047388 0.374542 -1.389641 -11.138452 -3.275328 -1.496512 -34.068786 -9.139106 2.814744 0.000000 0.000000 0.000000 15.119421 0.150840 -1.486994 -0.568905 -0.635344 -7.672766 -2.733582 0.052935 -2.431875 -14.597362 -43.760373 -30.950524 7.882094 -84.712685 4.370649 0.000000 0.000000 0.000000 14.641006 0.243497 -1.318571 7.092489 29.935841 16.699309 0.067511 2.238160 0.931387 -42.423186 19.604945 23.608604 1.319202 56.006735 -3.754892 0.000000 0.000000 0.000000 
5.697501 46.494839 -25.060917 0.000000 0.000000 0.000000 37.144457 4.726346 3.940524 -94.914569 -22.736175 30.936290 116.979175 0.325266 -2.909046 -17.163854 -16.461816 -29.296717 -38.896968 -0.844879 -3.012938 0.000000 0.000000 0.000000 39.290479 1.899774 4.842673 -120.943758 7.660209 -8.542491 126.921225 7.113855 -1.628452 -8.408117 -3.670876 0.973144 -39.083493 2.159507 -2.272513 0.000000 0.000000 0.000000 39.920673 1.873638 4.579468 6.616507 -2.633996 -3.244648 15.333404 0.314965 -0.706306 1.182901 -2.953786 1.352987 0.000000 0.000000 0.000000 14.644202 0.216849 -1.226339 -10.846360 -3.263265 -1.571857 -34.788978 -8.354401 3.231889 0.000000 0.000000 0.000000 14.882021 -0.137947 -1.333225 -0.859043 -0.440217 -8.376182 -3.614223 0.901919 -2.785102 -14.550888 -43.393718 -32.741861 13.330649 -84.097510 10.046574 0.000000 0.000000 0.000000 14.272701 0.062201 -1.043450 7.178985 28.823135 16.859506 0.339315 3.097724 1.740282 -43.504340 20.381249 23.472778 0.737039 55.112322 -2.196484 0.000000 0.000000 0.000000 
5.534645 46.196800 -24.817249 0.000000 0.000000 0.000000 37.267544 4.127397 3.755708 -95.277410 -21.821071 32.248123 117.857646 0.837023 -3.518561 -17.925960 -16.138817 -28.170926 -39.377803 -0.716578 -3.513871 0.000000 0.000000 0.000000 39.228806 2.343685 4.280570 -120.611988 6.558923 -9.550241 127.602373 6.406657 -0.548402 -9.585622 -3.240211 0.780799 -38.496623 2.377477 -2.605976 0.000000 0.000000 0.000000 39.293498 2.421368 4.224695 7.071393 -3.032020 -2.977333 15.368096 0.101103 -0.664792 1.569283 -3.328178 1.285888 0.000000 0.000000 0.000000 14.618719 0.133940 -1.279229 -10.832860 -3.394920 -1.657991 -35.191324 -7.438943 3.597074 0.000000 0.000000 0.000000 15.040041 -0.296853 -1.253957 -1.053467 -0.247654 -8.574457 -4.364371 1.145435 -2.830435 -14.517434 -42.400418 -33.866042 21.200170 -85.149865 18.293738 0.000000 0.000000 0.000000 14.264163 -0.031234 -0.950355 7.153741 27.761319 16.762498 0.444560 4.307449 2.533152 -44.300860 21.679557 23.237427 0.352106 54.297398 -1.187149 0.000000 0.000000 0.000000 
5.519385 46.240395 -24.358562 0.000000 0.000000 0.000000 37.530940 3.772900 3.445785 -95.780549 -20.988169 33.002378 117.999700 0.688246 -3.279035 -18.684042 -15.940893 -27.639860 -38.939072 -0.710596 -3.622346 0.000000 0.000000 0.000000 39.426164 3.116425 3.614621 -120.348220 5.569741 -10.454414 127.782061 5.972289 -0.075540 -10.721121 -2.220192 0.069447 -38.266241 2.534066 -2.957186 0.000000 0.000000 0.000000 38.875955 2.407873 4.030748 7.131756 -3.223225 -2.736604 15.636934 -0.006265 -0.699243 2.094223 -3.088565 1.201348 0.000000 0.000000 0.000000 14.749290 0.117964 -1.453938 -10.756079 -3.565751 -1.839625 -35.270953 -6.670066 3.775442 0.000000 0.000000 0.000000 15.341722 -0.321329 -1.172393 -1.197144 -0.106102 -8.457441 -4.732390 0.893596 -2.614761 -14.431450 -41.267661 -34.703211 38.591890 -86.771475 36.062562 0.000000 0.000000 0.000000 14.436570 -0.047688 -0.962980 6.965743 26.953906 16.757668 0.255970 5.155444 2.959578 -44.744200 23.111815 23.001335 0.083680 53.786572 -0.624525 0.000000 0.000000 0.000000 
5.537159 46.510983 -23.784077 0.000000 0.000000 0.000000 38.096336 3.922685 3.037666 -96.253526 -20.409307 33.385306 117.278091 0.218781 -2.833362 -19.209743 -15.933901 -26.723993 -37.878013 -0.894163 -3.390173 0.000000 0.000000 0.000000 39.818545 3.876134 3.045209 -120.200756 4.825631 -11.233857 127.459239 5.798050 -0.080752 -11.376021 -0.826763 -0.915104 -37.968871 2.633875 -3.331333 0.000000 0.000000 0.000000 38.713598 2.090534 3.911218 6.777127 -3.243957 -2.519569 15.949540 -0.009795 -0.786967 2.071664 -2.318244 1.135939 0.000000 0.000000 0.000000 14.908988 0.171794 -1.645938 -10.484230 -3.828018 -2.247750 -35.156473 -6.026360 3.682765 0.000000 0.000000 0.000000 15.524491 -0.208781 -1.056347 -1.297303 -0.104817 -8.387894 -4.631892 0.233135 -2.459058 -14.252611 -40.503111 -35.539616 66.594064 -87.548081 64.300330 0.000000 0.000000 0.000000 14.593372 -0.024127 -1.004390 6.732097 26.395464 16.906648 -0.399113 5.352309 3.036568 -44.689129 23.981621 22.655022 -0.072983 53.773967 -0.420764 0.000000 0.000000 0.000000 
